# xmcd
#
# Track frame offsets: 
#        150
#        26640
#        42565
#        60180
#        79810
#        96182
#        111657
#        127662
#        149807
#        165345
#        180152
#        198155
#
# Disc length: 3010 seconds
#
# Revision: 1
# Processed by: cddbd v1.5.2PL0 Copyright (c) Steve Scherf et al.
# Submitted via: ExactAudioCopyFreeDBPlugin 1.0
#
DISCID=9a0bc00c
DTITLE=Ελευθερία Αρβανιτάκη - Τα Kορμιά Kαι Tα Mαχαίρια
DYEAR=1994
DGENRE=Έντεχνη
TTITLE0=Φύσα ψυχή μου
TTITLE1=Σκιές και χρώματα 
TTITLE2=Τα κορμιά και τα μαχαίρια 
TTITLE3=Σαν βροχή 
TTITLE4=Μαύρο κυπαρίσσι 
TTITLE5=Τα πολλά να γίνουν ένα 
TTITLE6=Η βάρκα 
TTITLE7=Τα σχοινιά 
TTITLE8=Εγώ κρασί δεν έπινα 
TTITLE9=Η καρδιά μου απόψε ξαγρυπνά 
TTITLE10=Γελαστή φωτογραφία 
TTITLE11=Παράπονο (Yar Ko Parag)-Η ξενιτιά (Bingeol)
EXTD=
EXTT0=
EXTT1=
EXTT2=
EXTT3=
EXTT4=
EXTT5=
EXTT6=
EXTT7=
EXTT8=
EXTT9=
EXTT10=
EXTT11=
PLAYORDER=
